<?xml version="1.0" encoding="utf-8"?>
<!-- Generator: Adobe Illustrator 20.1.0, SVG Export Plug-In . SVG Version: 6.00 Build 0)  -->
<svg version="1.1" id="Layer_1" xmlns="http://www.w3.org/2000/svg" xmlns:xlink="http://www.w3.org/1999/xlink" x="0px" y="0px"
	 viewBox="0 0 256 144" style="enable-background:new 0 0 256 144;" xml:space="preserve">
<style type="text/css">
	.st0{fill:#D9D9D9;}
</style>
<path class="st0" d="M44.3,30c0.3-3.5,0.6-6,0.6-8.4c0-5.1,2-7.7,7.5-7.6c10.7,0.2,21.3,0.2,32,0c5.4-0.1,7.6,2.3,7.6,7.5
	c0,2.4,0.3,4.9,0.5,7.8c2.6,0.3,4.7,0.7,6.8,0.7c6.8,0.1,13.7-0.1,20.5,0.1c6.5,0.2,11.1,4.2,11.1,10.5c0.2,24,0.2,48,0,72
	c0,5.9-3.6,9.5-9.2,10.9c-2.2,0.5-4.6,0.5-6.9,0.5c-30.8,0-61.7,0-92.5,0c-12.2,0-16.2-4.1-16.2-16.2c0-20.7,0-41.3,0-62
	C5.8,33.4,9.2,30,21.4,30C28.9,30,36.3,30,44.3,30z M68.2,41.1C48.7,41.2,31.8,58.2,32,77.7c0.2,19.4,16.8,36,36.2,36.2
	c19.5,0.2,36.6-17.1,36.5-36.9C104.6,57.9,87.5,41,68.2,41.1z"/>
<path class="st0" d="M48.5,90.2c4.1-4.5,7.5-8.1,11.3-12.2c-3.6-4-7-7.7-11-12c2.5-2.7,4.8-5.1,7.7-8.2c4.2,3.8,7.9,7.2,12.2,11.2
	c3.9-3.5,7.6-6.9,11.9-10.8c2.7,2.5,5,4.7,7.8,7.2c-4.2,4.5-7.5,8.1-11,12.1c3.6,4,7,7.8,11,12.2c-2.9,2.6-5.3,4.9-8.2,7.5
	c-4.1-3.8-7.7-7.1-11.7-10.8c-3.9,3.6-7.5,6.8-11.7,10.6C54,94.8,51.6,92.8,48.5,90.2z"/>
<g>
	<g>
		<path class="st0" d="M145.3,74.5h-2.6V62.8H140v-2.3h8v2.3h-2.7V74.5z"/>
		<path class="st0" d="M160.1,74.5h-2.6v-6.2H154v6.2h-2.6V60.5h2.6V66h3.5v-5.6h2.6V74.5z"/>
		<path class="st0" d="M173.2,60.5v9.1c0,1.7-0.4,3-1.1,3.8c-0.8,0.9-1.8,1.3-3.3,1.3c-1.4,0-2.5-0.4-3.2-1.3
			c-0.7-0.9-1.1-2.2-1.1-3.9v-9.1h2.6v9.3c0,1.8,0.6,2.7,1.8,2.7c0.6,0,1-0.2,1.3-0.7c0.3-0.5,0.5-1.1,0.5-1.9v-9.3H173.2z"/>
		<path class="st0" d="M182.6,74.5l-2.7-12h-0.1c0.1,0.9,0.2,1.8,0.2,2.5v9.4h-2.4V60.5h4l2.4,11.1h0.1l2.4-11.1h4.1v14.1H188V65
			c0-0.8,0-1.6,0.1-2.4h-0.1l-2.7,12H182.6z"/>
		<path class="st0" d="M194.9,60.5h3.6c1.5,0,2.5,0.3,3.2,0.9s1,1.5,1,2.7c0,0.8-0.2,1.5-0.5,2c-0.4,0.5-0.8,0.9-1.4,1v0.1
			c0.8,0.2,1.4,0.6,1.7,1.1c0.4,0.5,0.5,1.3,0.5,2.2c0,1.3-0.3,2.3-1,3c-0.7,0.7-1.6,1.1-2.8,1.1h-4.2V60.5z M197.4,66.1h1.2
			c0.6,0,0.9-0.1,1.2-0.4s0.3-0.7,0.3-1.3c0-0.6-0.1-1-0.4-1.3c-0.3-0.3-0.7-0.4-1.2-0.4h-1.1V66.1z M197.4,68.3v3.9h1.3
			c0.5,0,1-0.2,1.2-0.5s0.4-0.8,0.4-1.5c0-1.3-0.6-1.9-1.7-1.9H197.4z"/>
		<path class="st0" d="M216.8,74.5h-3.2l-4.3-10.2h-0.1c0.2,0.8,0.2,1.6,0.2,2.5v7.7h-2.4V60.5h3.2l4.3,10.1h0.1
			c-0.1-0.7-0.2-1.5-0.2-2.4v-7.7h2.4V74.5z"/>
		<path class="st0" d="M228,74.5l-0.8-3.5h-3.7l-0.8,3.5h-2.6l3.5-14.1h3.5l3.5,14.1H228z M226.7,68.6l-0.8-3.3
			c0-0.2-0.1-0.7-0.3-1.5s-0.3-1.3-0.3-1.6c-0.1,0.6-0.2,1.2-0.3,1.8c-0.1,0.7-0.5,2.2-1,4.5H226.7z"/>
		<path class="st0" d="M234.2,74.5V60.5h2.5v14.1H234.2z"/>
		<path class="st0" d="M241.3,74.5V60.5h2.6v11.8h3.6v2.3H241.3z"/>
	</g>
	<g>
		<path class="st0" d="M148.2,94.6h-2.4l-3.3-7.8h-0.1c0.1,0.6,0.2,1.2,0.2,1.9v5.9h-1.8V83.8h2.5l3.3,7.7h0.1
			c-0.1-0.5-0.1-1.1-0.1-1.8v-5.9h1.8V94.6z"/>
		<path class="st0" d="M159,89.2c0,1.8-0.3,3.1-1,4.1c-0.7,1-1.6,1.4-2.9,1.4c-1.2,0-2.2-0.5-2.9-1.4c-0.7-1-1-2.3-1-4.1
			c0-1.8,0.3-3.1,1-4.1c0.7-0.9,1.6-1.4,2.9-1.4c1.2,0,2.2,0.5,2.8,1.4C158.6,86,159,87.4,159,89.2z M153.3,89.2
			c0,1.2,0.2,2.2,0.5,2.8c0.3,0.6,0.8,1,1.4,1c1.2,0,1.8-1.3,1.8-3.8s-0.6-3.8-1.8-3.8c-0.6,0-1.1,0.3-1.4,1
			C153.4,87,153.3,87.9,153.3,89.2z"/>
		<path class="st0" d="M165.2,94.6h-2v-9h-2.1v-1.8h6.1v1.8h-2.1V94.6z"/>
		<path class="st0" d="M180.2,94.6l-0.6-2.7h-2.8l-0.6,2.7h-2l2.7-10.8h2.7l2.7,10.8H180.2z M179.2,90.1l-0.6-2.5
			c0-0.2-0.1-0.5-0.2-1.1s-0.2-1-0.2-1.2c-0.1,0.4-0.1,0.9-0.2,1.4s-0.4,1.7-0.8,3.5H179.2z"/>
		<path class="st0" d="M189,83.8h2l-2.5,10.7h-2.5l-2.5-10.7h2l1.4,6.6c0.1,0.6,0.3,1.4,0.4,2.4c0.1-0.9,0.2-1.7,0.4-2.4L189,83.8z"
			/>
		<path class="st0" d="M198.2,94.6l-0.6-2.7h-2.8l-0.6,2.7h-2l2.7-10.8h2.7l2.7,10.8H198.2z M197.2,90.1l-0.6-2.5
			c0-0.2-0.1-0.5-0.2-1.1c-0.1-0.6-0.2-1-0.2-1.2c-0.1,0.4-0.1,0.9-0.2,1.4s-0.4,1.7-0.8,3.5H197.2z"/>
		<path class="st0" d="M202.9,94.6V83.8h1.9v10.7H202.9z"/>
		<path class="st0" d="M208.4,94.6V83.8h2v9h2.8v1.7H208.4z"/>
		<path class="st0" d="M221.5,94.6l-0.6-2.7H218l-0.6,2.7h-2l2.7-10.8h2.7l2.7,10.8H221.5z M220.5,90.1l-0.6-2.5
			c0-0.2-0.1-0.5-0.2-1.1s-0.2-1-0.2-1.2c-0.1,0.4-0.1,0.9-0.2,1.4c-0.1,0.5-0.4,1.7-0.8,3.5H220.5z"/>
		<path class="st0" d="M226,83.8h2.7c1.1,0,1.9,0.2,2.4,0.7s0.8,1.1,0.8,2.1c0,0.6-0.1,1.1-0.4,1.6s-0.6,0.7-1.1,0.8v0.1
			c0.6,0.2,1,0.4,1.3,0.9c0.3,0.4,0.4,1,0.4,1.7c0,1-0.3,1.7-0.8,2.3c-0.5,0.6-1.2,0.8-2.1,0.8H226V83.8z M227.9,88.1h0.9
			c0.4,0,0.7-0.1,0.9-0.3c0.2-0.2,0.3-0.6,0.3-1s-0.1-0.8-0.3-1s-0.5-0.3-0.9-0.3h-0.8V88.1z M227.9,89.8v3h1c0.4,0,0.7-0.1,0.9-0.4
			c0.2-0.3,0.3-0.6,0.3-1.2c0-1-0.4-1.4-1.3-1.4H227.9z"/>
		<path class="st0" d="M235.2,94.6V83.8h2v9h2.8v1.7H235.2z"/>
		<path class="st0" d="M247.5,94.6h-4.8V83.8h4.8v1.7h-2.8v2.6h2.6v1.7h-2.6v3h2.8V94.6z"/>
	</g>
</g>
</svg>
